# xmcd
#
# Track frame offsets:
#	1275
#	5563
#	17911
#	35543
#	38394
#	45252
#	52424
#	54529
#	64689
#	80374
#	91582
#	103984
#	108362
#	113437
#	134112
#	148589
#	151930
#	154387
#	157767
#	160117
#
# Disc length: 2356 seconds
# Revision: 0
# Processed by: cddbd v1.5.2PL0 Copyright (c) Steve Scherf et al.
# Submitted via: dBpowerAMP V12.0
#
DISCID=00092314
DTITLE=Max;Frimmer;Winter;Grotzinger;Kleine Konzert / Israel in Egypt, arr Mendelssohn
DYEAR=
DGENRE=Classical
TTITLE0=Moses und die Kinder Israel sangen also zu dem Herrn
TTITLE1=Ich will singen meinem Gott
TTITLE2=Der Herr ist mein Heil und mein Lied
TTITLE3=Er ist mein Gott, und ich will bereiten ihm eine Wohnung
TTITLE4=Die Tiefe deckte sie
TTITLE5=Deine Rechte, o Herr, tut große, herrliche Wunder
TTITLE6=Und in der Größe deiner Herrlichkeit
TTITLE7=Die Himmel sind Dein
TTITLE8=Und von dem Hauch Deines Mundes
TTITLE9=So dachte der Feind
TTITLE10=Aber Du ließest wehen Deinen Wind
TTITLE11=Wer ist Dir gleich, o Herr, unter den Göttern?
TTITLE12=Da verschlang sie das Grab
TTITLE13=Das hören die Völker und sind erstaunt
TTITLE14=Bringe sie hiinein und pflanze sie
TTITLE15=Der Herr ist König auf immer und ewig!
TTITLE16=Denn die Reiter Pharaos mit all' ihren Wagne
TTITLE17=Derr Herr ist König auf immer und ewig!
TTITLE18=Und Mirjam die Prophetin
TTITLE19=Singet unserem Gott
EXTD=
EXTT0=
EXTT1=
EXTT2=
EXTT3=
EXTT4=
EXTT5=
EXTT6=
EXTT7=
EXTT8=
EXTT9=
EXTT10=
EXTT11=
EXTT12=
EXTT13=
EXTT14=
EXTT15=
EXTT16=
EXTT17=
EXTT18=
EXTT19=
PLAYORDER=
